<?xml version="1.0" encoding="UTF-8"?>
<svg xmlns="http://www.w3.org/2000/svg" width="600" height="600" viewBox="0 0 600 600">
	<title>UK traffic sign S68 (Clean Air Zone C)</title>
	<circle fill="#5E9732" cx="300" cy="300" r="300"/>
	<path fill="#FFF" d="M460.8,270.2c-8.8-41.3-45.4-72.4-89.2-72.7c-11.3-18.9-26.8-35.1-45.5-47.2c-23.5-15.3-50.7-23.3-78.9-23.3c-38.7,0-75.1,15.1-102.4,42.4c-27.4,27.4-42.4,63.7-42.4,102.4c0,5.1,0.3,10.1,0.8,15.2C80.6,304.2,67,331,67,360.1c0,50.7,41.2,91.9,91.9,91.9h282.7c50.7,0,91.9-41.2,91.9-91.9C533.5,316,502.3,279.1,460.8,270.2zM140.7,428.4c-30.2-8-52.5-35.6-52.5-68.3c0-27.3,15.4-50.9,38.1-62.7c-1.7-8.2-2.7-16.8-2.7-25.6c0-68.3,55.3-123.6,123.6-123.6c47,0,87.9,26.2,108.8,64.9L140.7,428.4zM352.2,347.7l0.1,2.8l0.3,2.8l0.4,2.8l0.6,2.7l0.7,2.7l0.4,1.2l0.8,2l0.9,1.9l1.1,1.8l1.2,1.7l1.3,1.6l1.5,1.5l1.6,1.4l1.7,1.2l1.8,1.1l0.1,0l2,0.9l2.1,0.8l2.1,0.6l2.2,0.4l2.2,0.3l2.2,0.1l2.1-0.1l2.2-0.3l2.2-0.4l2.1-0.6l2.1-0.8l1.7-0.9l1.8-1.1l1.7-1.2l1.6-1.4l1.5-1.5l1.3-1.6l1.2-1.7l1-1.8l0.9-1.9l0.7-2l0.6-2l0.4-2l21.7,8.6l-0.3,0.9l-1.1,2.7l-1.2,2.6l-1.3,2.6l-1.4,2.5l-1.6,2.5l-1.5,1.9l-1.9,2.2l-2,2.1l-2.1,2l-2,1.6l-2.2,1.6l-2.3,1.4l-2.4,1.3l-2.4,1.2l-2.5,1l-2.5,0.9l-2.6,0.7l-2.6,0.6l-2.7,0.5l-2.7,0.3l-2.7,0.2l-0.4,0l-2.9,0.1l-2.8-0.1l-2.5-0.1l-2.7-0.3l-2.7-0.4l-2.6-0.6l-2.6-0.7l-2.5-0.9l-2.5-1l-2.4-1.2l-2.4-1.3l-2.3-1.4l-2.2-1.5l-2.1-1.7l-1.8-1.7l-2-2.1l-1.9-2.2l-1.7-2.3l-1.6-2.4l-1.5-2.5l-1.4-2.5l-1.2-2.6l-1.1-2.7l-1-2.7l-0.8-2.7l-0.7-2.8l-0.6-2.8l-0.4-2.8l-0.3-2.9l-0.1-2.9l0-0.6l-0.1-3.5l0.1-3.5l0.1-2.5l0.2-2.9l0.4-2.8l0.5-2.8l0.7-2.8l0.8-2.8l1-2.7l1.1-2.7l1.2-2.6l1.3-2.5l1.5-2.5l1.6-2.4l1.7-2.3l1.8-2.2l1.9-2.1l2.1-2l2-1.6l2.2-1.6l2.3-1.4l2.4-1.3l2.4-1.2l2.5-1l2.5-0.9l2.6-0.7l2.6-0.6l2.7-0.5l2.7-0.3l2.7-0.2l0.4,0l2.9-0.1l2.9,0.1l2.5,0.1l2.7,0.3l2.7,0.4l2.6,0.6l2.6,0.7l2.5,0.9l2.5,1l2.4,1.2l2.4,1.3l2.3,1.4l2.2,1.6l2.1,1.7l2,1.9l2,2.1l1.8,2.2l1.7,2.3l1.4,2.3l1.5,2.7l1.4,2.8l1.3,2.9l1.2,2.9l-21.7,8.6l-0.2-1.3l-0.5-2.1l-0.7-2l-0.9-2l-1-1.9l-1.2-1.8l-1.3-1.7l-1.5-1.6l-1.6-1.4l-1.7-1.3l-1.8-1.2l-1.7-0.8l-2.1-0.8l-2.1-0.6l-2.2-0.4l-2.2-0.3l-2.2-0.1h-0.1l-2.2,0.1l-2.2,0.3l-2.2,0.4l-2.1,0.6l-2.1,0.8l-2,0.9l-1.1,0.6l-1.7,1.2l-1.6,1.3l-1.5,1.4l-1.4,1.6l-1.3,1.7l-1.1,1.8l-1,1.9l-0.8,1.9l-0.7,2l-0.7,2.5l-0.6,2.7l-0.5,2.8l-0.3,2.8l-0.2,2.8l0,2.8L352.2,347.7z"/>
</svg>